<svg xmlns="http://www.w3.org/2000/svg" width="1288" height="419.2" viewBox="0 0 1207.5 393"><g fill="#36b1cc"><path d="M55.214 98.99L10.009 69.948 7.737 61.11l15.91-4.798 28.789.505 87.378 12.375 67.175 19.95 34.093 16.163 24.749 15.91 13.132 13.89 6.313 12.12.505 5.557-.505 6.566-3.312 9.653-9.107 7.321-18.75 11.25-18.393 5.358-28.571 5.357-31.071 4.107-48.93 3.036-22.142 1.25-32.857.892-14.286.179-13.928-1.429-8.393-.714-5.357-4.821 1.071-5.179 5.714-3.393L50 189l35.179-6.786 2.5 2.679-.179 2.143-2.5.357-1.428-1.607-5.358.893-6.071 2.678-23.929 7.143-3.392 2.857 1.428 1.25 3.393.357 37.679.357 42.5-2.142s25-2.322 28.214-2.5c3.214-.179 36.428-3.393 36.428-3.393s21.429-4.107 22.143-3.929c.715.179 13.393-1.786 13.393-1.786l14.643-3.928 10.714-4.286 9.286-4.643 10.179-7.143 2.857-5.714.714-5.893-.179-6.964-3.571-7.5-4.464-7.143-6.072-5-8.393-6.607-6.428-4.464-5.893-3.572-7.679-4.643-8.928-3.928-24.643-9.822-17.857-6.964-14.822-5-17.857-5-1.785 6.607 1.25 8.036 3.035 10 7.5 14.107 8.75 15.179 7.143 8.75 15.179 15.178-9.465 2.5-10.892-11.25-11.786-14.285-9.107-18.572-7.679-21.428-1.607-8.036 1.786-8.75-43.572-7.857-21.25-3.572-11.428-1.25-16.786-1.607H40.536l-9.107 1.429-11.786 2.321 2.679 4.107 8.928 4.643 6.607 6.072 10.357 7.678 6.429 3.929 3.214 1.964z" fill-rule="evenodd"/><path d="M320.48 147.89l-4.544 4.292s-3.537 3.789-3.032 4.799c.051.102.063.261.06.45l-15.212-.702-18.94 1.01-11.616 4.797-5.051 8.334-.252 8.84 4.797 7.576 13.133 3.787 16.162.506 18.183-1.516 14.395-3.283 1.957-.803 1.072.55 8.84 2.274h10.102l1.01-6.82-5.557-1.262-1.69-.394 3.963-1.625 6.06-4.8-.757-12.626-5.809-6.314-12.373-6.061-9.092-1.01h-5.808zm9.85 8.081l5.809 3.03 6.06 3.789 3.787 5.05 1.516 3.03-.371.966-6.7-4.753-12.374-5.303-6.008-1.858 1.463-2.437 6.818-1.514zm-31.568 9.848l9.85.254 2.484.113.547 6.2 5.05 5.556 5.051 3.535.168.086-.926.166-13.384 2.777h-14.395l-11.87-1.261-5.556-1.516-3.283-3.787-.252-5.305 2.02-4.797 6.06-1.263 5.809-.504 12.627-.254zm22.94 1.924l4.839 1.613 7.828 4.04 6.566 2.778 1.102.58-4.13 1.946-.294.052-5.263-1.316-7.07-5.555-3.536-3.537-.043-.601z"/><path d="M423.464 138.762l-3.159 1.388-1.388 2.65.127 4.927 2.652 3.283 4.293 1.01s4.293 1.64 3.662 1.64c-.631 0 3.787 4.672 3.787 4.672l1.516 4.547 2.904 6.945s1.514 5.43 1.64 6.44c.127 1.01 0 4.924 0 4.924l-2.398 3.41-4.293 2.777-6.314 2.525-9.217 1.895-10.354-1.39-9.091-2.4-3.914-2.524-.627-.432 1.384-.451 4.04-3.916 1.894-4.293-1.137-5.934-3.283-6.693-5.303-3.914-4.671-2.147-5.178-.379-3.914 2.4-2.905 4.673-1.64 5.554 2.525 10.229.834 1.904-2.855.494h-13.258l-9.723-.252-1.767 7.324 5.302 1.01 10.48.252 7.073-.758 4.418-.252 3.537-.757.694-.19 1.578 1.578 8.965 4.42 8.209 1.516 12.5 3.408 14.52-1.262 10.86-2.146 5.051-3.916 3.408-3.03 2.274-5.808.379-5.936-1.389-5.302-1.389-5.682-3.662-7.828-4.799-7.83-4.293-5.809-4.04-5.303-4.545-1.261zm-37.756 28.789l4.42 1.894 2.525 5.176-2.398 3.031-4.485 1.913-.187-.145-2.022-3.031-1.01-4.545.506-2.02 1.01-1.77 1.64-.503z"/><path d="M458.027 125.022l-3.662-9.849 1.768-3.156 2.904-2.842 3.03 1.326 9.408 7.071 1.515 2.715.126 2.02-.063 2.905-.631.82-6.819-3.977-3.914-1.642-1.515 3.347zM465.623 165.452l2.084-2.336 3.22-.442 2.462 1.641 1.641 1.894.126 2.02-.315 1.39.505 2.778.947 3.598.315 6.756-3.472 1.262-4.988-3.85-2.083-5.81-.379-9.28zM514.545 74.48l.625-2.767 1.16-1.875 2.5-.982 2.769 1.16 1.428 2.232 1.518 7.143 1.964 8.036 4.286 13.393 3.125 9.464 3.75 9.197 6.16 15.892 4.287 9.554 2.857 7.5 4.553 9.464 2.5 8.572 2.322 7.946 1.964.804 1.16-2.322 3.215.625-.357 3.661-1.875 4.196 1.875 7.947 2.768 11.428.535 6.34-2.678 1.964-1.607-1.607-3.215-5.09-6.25-15.803-4.821 1.34-7.679.267-7.857.536-8.482-.536-7.41-1.16-6.786-2.411-6.072-2.59-5.893-6.696-2.946-5.446-2.054-5.09-.089-7.768 1.697-8.66 2.678-5.893 4.108-5.09 6.785-2.5 8.84-.178 9.732 3.125 5.803 4.286 4.197 5.982 3.482 7.768 1.875 5.357v6.34l-2.59 3.838-2.767-.446-1.965-4.107-.267-5.536-3.84-7.5-4.285-5.178-4.018-2.054-5.357-1.607-5.804-.714-3.66 1.964-2.947 2.946-2.232 3.572-.715 5.625.447 7.59 2.143 4.642 4.018 4.286 5.267 3.928 7.054 2.054 8.214.714 5.893.357 5.893-.446 5.893-.268 3.036-1.34.089-3.035-4.018-10.09-9.286-22.5-10.179-24.91-6.964-20.714-4.732-13.75-1.429-7.679z" fill-rule="evenodd"/><path d="M827.332 139.378l-5.556 2.274-1.188 1.19.305-.811-16.541 1.64-12.123 3.032-9.092 5.43-5.934 5.933-2.652 7.703.252 6.188 2.4 6.312 4.041 3.79 8.586 3.661h10.733l13.133-.379 16.035-1.515 1.37-.395.019.016s6.44 1.388 6.818 1.388c.379 0 12.248 1.264 12.248 1.264l11.492.504 9.848-1.64 3.79-1.01 1.388-1.895-3.032-3.662-4.42-.127-5.427 1.012-12.248-1.137-4.924-.693 1.514-.823 8.586-9.218.127-7.953-4.926-9.723-5.303-5.684-6.06-3.283-7.956-1.389h-5.302zm-12.756 11.069l-.123.17-1.263 6.818 1.515 7.576 2.905 5.682 3.914 4.547 3.052 2.765-3.558.77-10.48.506-9.218.377-6.693-1.01-5.807-1.768-3.158-2.65-1.134-3.789 1.388-6.188 3.787-4.166 4.42-3.156 5.051-3.41 7.324-1.768 6.06-.884 2.018-.422zm15.912.043l5.557.379 5.303 2.4 3.156 2.777 3.031 3.41 1.516 2.903-.254 3.662-2.271 2.904-3.284 3.284-3.158 1.388-3.408 1.643-.918.217-4.26-2.239-5.43-4.924-2.904-8.712.506-6.692 2.905-2.146 3.913-.254z"/><path d="M921.027 166.669l3.303-1.071 1.697-2.143-.09-5.893-2.231-4.375-4.911-4.732-8.393-3.482s-7.143-.715-6.786-.804c.357-.09-3.839-.09-3.839-.09l-6.607.536-5.268.715-6.071 1.25-4.733 2.321-3.928 2.947-3.125 2.767-2.322 3.661-3.392 4.91s.714 4.912.714 5.269c0 .357.446 4.91.803 5.178.358.268 1.34 3.929 1.34 3.929l5.446 6.071 9.91 3.036 7.947 1.16 7.411 1.43 9.018-.358 6.964.625 7.232-.893 6.072-1.518 1.964-.089 2.59-6.071-5 .625-10.358.625-14.286-.179-11.25-1.34-8.66-2.678-6.34-3.393-1.16-2.857-.268-4.375.893-3.214 2.143-3.393 4.017-2.678 5.179-2.679 5.268-1.607 6.071-.536 6.161.804 7.946.268 4.554 2.41 2.679 3.215z" fill-rule="evenodd"/><path d="M993.977 137.7l-1.875 3.84.035 5.53-2.713-2.048-6.52-4.017-10.535-2.77-7.59 1.875-8.66 4.823-4.465 4.732-.398.773-1.564.745-9.375 7.767-4.108 8.483.09 9.464 3.48 6.07 6.34 5.268 11.43 3.395 11.875.892 10.98-2.322 9.108-2.41 3.027-2.852.01.887 2.41 25.893 1.07 31.072-1.16 29.465.715 43.213c3.31 6.497 7.768-4.733 7.768-4.733l-.177-25.355-.538-28.662.805-15.983-.447-36.785-1.518-25.178-.086-4.212c.155-.61.979-3.862.979-4.27 0-.446-1.07-8.482-1.07-8.482l-.2-.95-.873-10.123-.09-10.088-2.768-2.857-3.392-.09zm-21.875 9.108l8.482 2.322 5.358 3.57 2.857 3.66s.306.817.436 1.17l-2.4-3.49-4.733-3.84-5-1.695-6.697-.895-4.557.065.629-.42 5.625-.447zm-10.447 10.535l10.09.357 7.767 2.68 3.84 2.945.09 2.768-.983 1.697-1.875.535.178 4.108 4.287-.178 4.018-3.305 1.517-4.195-.677-5.41c.624 1.649 1.294 3.348 1.48 3.535.357.357.715 12.23.715 12.23l-4.553 4.555-6.52 3.303-12.052 1.875-5.893-.446-9.822-1.697-4.285-2.857-2.5-2.858-1.16-5.713 1.517-4.197.268-.492 1.518 1.922 2.68-.895 3.75-5.98 1.117-2.752 5.488-1.535z"/><path d="M1056.468 139.586l1.25-4.643 3.036-3.66 4.018-2.59 4.286 3.84 4.196 6.16 5.09 9.732 3.124 15.268.09 9.464.446 8.572-1.25 8.84-5.09 7.588-5.625 5.536-8.303 3.75-6.429.268-6.875-.893-3.571-2.053-4.732-3.036-5.982-5.447-3.84-5.267-4.107-9.733-2.053-9.642-.179-8.483.893-6.875 2.143-3.571 5.535-1.16 2.59 4.553v4.553l-.536 3.036-1.16 2.322-1.161 2.41v5.982l2.5 7.143 2.5 5.357 2.857 5.268 3.035 2.947 2.322 1.964 6.16 1.25 5.983.357 5.625-1.875 3.571-1.875 4.732-5.893 3.125-6.785.447-8.929s-1.518-11.607-1.786-12.768c-.268-1.16-2.232-7.053-2.232-7.053l-3.393-8.572-3.304-4.91-1.428 1.785-1.786 1.786h-3.928l-.893-2.679z" fill-rule="evenodd"/><path d="M1103.94 134.125l-4.243 1.751-4.242 3.227-2.396 5.996-1.937 11.434 2.49 10.88 2.551 4.631c-1.882 1.932-1.32 1.39-2.81 2.884l-3.615 4.844 4.428 2.95 4.211-2.184 3.948-2.737 7.665 7.688 9.577 6.187 5.502 3.731 11.547 2.209 9.105-2.101 5.373-2.853 3.197-4.96-1.201-4.15-4.148.276-4.613 1.752-6.638 1.016-7.469-.925-6.27-2.858-6.456-3.871-3.672-2.554 2.38-.858 8.024-2.123 7.837-5.44 2.305-5.902.739-7.837-4.981-7.01-7.56-7.285-5.811-3.227-7.377-2.581zm13.078 11.812l6.936 8.845-.118 7.033-6.821 4.65-10.261 1.774-3.297-1.541-1.475-4.726-1.359-6.788 1.198-5.73 6.215-8.258z"/><path d="M1187.446 35.004l-4.465.178-4.465 1.787-4.285 3.035-4.107 6.073-2.768 8.392-2.59 12.946-2.677 18.304-1.43 14.553.537 17.232.98 20.09 4.108 24.91 1.455 8.44-2.793 2.096-8.016 5.717-10.192 6.344-.811 2.046 1.875 4.732 2.438 1.48 11.581-7.372 6.338-4.197 1.297-.89.4 2.32 5.446 21.337 12.5 42.947 2.322 7.5 2.142-.447-1.34-14.195-4.82-19.197-3.125-12.233-4.732-20.535-1.883-12.23 3.133-2.145 5.267-4.91 7.768-8.393 6.875-11.25 4.018-9.554 2.054-9.733 1.25-8.928-.357-3.035.982-4.554-.804-13.213-.625-8.84-2.143-12.858-4.107-17.857-4.375-11.965-4.286-8.392-3.57-5.536zm-2.055 8.928L1187 45.72l1.697 4.643 3.303 9.285 2.857 9.375 2.143 7.143 1.25 10.804.892 11.16.983 13.928.09 7.322-1.25 6.786-2.233 8.214-4.642 10-4.912 8.393-7.143 8.125-5.625 4.932-.892-4.397-2.5-15.892-.803-9.286-1.25-11.697-.447-9.73v-8.305l.625-13.393 2.142-14.464 1.965-13.838 2.59-10.715 2.678-5.358 1.875-2.677 2.142-1.698 2.858-.447z"/><path d="M662.799 107.189l-.536 4.464-6.429.536-9.821-1.25-12.857-1.965-6.607-2.321-5-1.072-2.679-3.75 1.429-3.571 5.357-2.679 12.143-3.214 10.714-1.964 12.321-1.786 11.786-.893 31.429-3.393 22.678-1.071 17.322-.893 22.857.714 15 .893 13.929 1.965 5.357 2.857 3.75 3.571-.893 4.464-3.393 3.036-2.5 1.429-5.714 1.607-2.679-3.393 1.429-1.25 1.428.179 3.036-5-3.571-1.25-7.68-1.786-13.213-.357-12.858-1.072h-11.25l-8.214-.178-11.964.535-14.107 1.25-12.5 1.965-14.465.714-14.464 1.071-11.964 2.858-9.286 1.964-6.607 1.607-1.964 1.429 2.678 3.035 6.607 1.965zM702.877 113.665l3.393-3.393 5.357 2.143 3.75 6.428 9.643 11.25 28.929 32.857 11.071 15.893 2.5 12.322-2.678 3.035-8.036 3.929-16.786.893-28.75-1.964-16.25-2.5-16.071-1.786-18.929-1.786-13.75-.714-7.321-3.393 3.928-3.75 4.465-1.607 30.178-2.679 3.036 5.179 10.893 2.321 13.393.893 14.642 1.964 14.108 1.25 13.214-.357 7.857-.357 2.321-2.678-.892-5-3.572-5.893-5.893-7.322-6.071-7.678-10.893-12.679-9.107-9.821-7.143-8.036-6.071-6.786-4.465-5.893z" fill-rule="evenodd"/></g></svg>